# AST/ASF file generated using VICON BodyLanguage
# -----------------------------------------------
:version 1.10
:name VICON
:units
  mass 1.0
  length 0.45
  angle deg
:documentation
   .ast/.asf automatically generated from VICON data using
   VICON BodyBuilder and BodyLanguage model FoxedUp or BRILLIANT.MOD
:root
   order TX TY TZ RX RY RZ
   axis XYZ
   position 0 0 0  
   orientation 0 0 0 
:bonedata
  begin
     id 1 
     name lhipjoint
     direction 0.611823 -0.767273 0.19226 
     length 2.47422 
     axis 0 0 0  XYZ
  end
  begin
     id 2 
     name lfemur
     direction 0.34202 -0.939693 0  
     length 7.40835  
     axis 0 0 20  XYZ
    dof rx ry rz
    limits (-160.0 20.0)
           (-70.0 70.0)
           (-60.0 70.0)
  end
  begin
     id 3 
     name ltibia
     direction 0.34202 -0.939693 0   
     length 8.03679   
     axis 0 0 20   XYZ
    dof rx
    limits (-10.0 170.0)
  end
  begin
     id 4 
     name lfoot
     direction 0.0883598 -0.242766 0.966052   
     length 2.06694   
     axis -90 7.62852e-016 20   XYZ
    dof rx rz
    limits (-45.0 90.0)
           (-70.0 20.0)
  end
  begin
     id 5 
     name ltoes
     direction 1.53617e-011 -4.21699e-011 1   
     length 1.03711   
     axis -90 7.62852e-016 20   XYZ
    dof rx
    limits (-90.0 20.0)
  end
  begin
     id 6 
     name rhipjoint
     direction -0.590066 -0.783143 0.196236   
     length 2.42408  
     axis 0 0 0  XYZ 
  end
  begin
     id 7 
     name rfemur
     direction -0.34202 -0.939693 0   
     length 7.88987   
     axis 0 0 -20   XYZ
    dof rx ry rz
    limits (-160.0 20.0)
           (-70.0 70.0)
           (-70.0 60.0)
  end
  begin
     id 8 
     name rtibia
     direction -0.34202 -0.939693 0   
     length 7.87584   
     axis 0 0 -20   XYZ
    dof rx
    limits (-10.0 170.0)
 end
 begin
     id 9 
     name rfoot
     direction -0.130476 -0.358481 0.924374   
     length 2.21745  
     axis -90 -7.62852e-016 -20   XYZ
    dof rx rz
    limits (-45.0 90.0)
           (-20.0 70.0)
  end
  begin
     id 10 
     name rtoes
     direction 8.20695e-005 8.89091e-005 1   
     length 1.09536   
     axis -90 -7.62852e-016 -20   XYZ
    dof rx
    limits (-90.0 20.0)
  end
  begin
     id 11 
     name lowerback
     direction 0.00981224 0.999875 -0.0124197   
     length 1.94808   
     axis 0 0 0   XYZ
    dof rx ry rz
    limits (-20.0 45.0)
           (-30.0 30.0)
           (-30.0 30.0)
  end
  begin
     id 12 
     name upperback
     direction 0.038911 0.999194 0.00981686   
     length 1.94415   
     axis 0 0 0   XYZ
    dof rx ry rz
    limits (-20.0 45.0)
           (-30.0 30.0)
           (-30.0 30.0)
  end
  begin
     id 13 
     name thorax
     direction 0.0330692 0.999334 0.0154389   
     length 1.94117   
     axis 0 0 0   XYZ
    dof rx ry rz
    limits (-20.0 45.0)
           (-30.0 30.0)
           (-30.0 30.0)
  end
  begin
     id 14 
     name lowerneck
     direction -0.0374305 0.99415 0.10132   
     length 1.87291   
     axis 0 0 0   XYZ
    dof rx ry rz
    limits (-20.0 45.0)
           (-30.0 30.0)
           (-30.0 30.0)
  end
  begin
     id 15 
     name upperneck
     direction 0.0120692 0.985979 -0.166431   
     length 1.89248   
     axis 0 0 0   XYZ
    dof rx ry rz
    limits (-20.0 45.0)
           (-30.0 30.0)
           (-30.0 30.0)
  end
  begin
     id 16
     name head
     direction 0.00629908 0.997708 -0.06737  
     length 1.90559  
     axis 0 0 0   XYZ
    dof rx ry rz
    limits (-20.0 45.0)
           (-30.0 30.0)
           (-30.0 30.0)
  end
  begin
     id 17 
     name lclavicle
     direction 0.961536 0.27308 -0.0295863  
     length 3.52757  
     axis 0 0 0   XYZ
    dof ry rz
    limits (-20.0 10.0)
           (0.0 20.0)
  end
  begin
     id 18 
     name lhumerus
     direction 1 -4.48969e-011 2.61153e-029   
     length 5.14845   
     axis 180 -30 -90   XYZ
    dof rx ry rz
    limits (-60.0 90.0)
           (-90.0 90.0)
           (-90.0 90.0)
  end
  begin
     id 19
     name lradius
     direction 1 -4.4896e-011 -3.37549e-027   
     length 3.43674   
     axis 180 -30 -90   XYZ
    dof rx
    limits (-10.0 170.0)
  end
  begin
     id 20
     name lwrist
     direction 1 -4.48969e-011 2.56952e-028   
     length 1.71837   
     axis -5.12785e-016 90 90   XYZ
    dof ry
    limits (-180.0 0.0)
 end
  begin
     id 21 
     name lhand
     direction 1 -4.49094e-011 5.13905e-028   
     length 0.588709   
     axis -3.27915e-016 90 90   XYZ
    dof rx rz
    limits (-90.0 90.0)
           (-45.0 45.0)
  end
  begin
     id 22 
     name lfingers
     direction 1 -4.48821e-011 1.02781e-027   
     length 0.474633   
     axis -6.5583e-016 90 90   XYZ
    dof rx
    limits (0.0 90.0)
  end
  begin
     id 23
     name lthumb
     direction 0.707107 -6.34922e-011 0.707107   
     length 0.68148   
     axis -90 45 2.85299e-015   XYZ
    dof rx rz
    limits (-45.0 45.0)
           (-45.0 45.0)
  end
  begin
     id 24 
     name rclavicle
     direction -0.940964 0.333844 -0.0559866   
     length 3.55948  
     axis 0 0 0   XYZ 
    dof ry rz
    limits (-10.0 20.0)
           (-20.0 0.0)
  end
  begin
     id 25 
     name rhumerus
     direction -1 -4.48973e-011 3.15259e-027  
     length 5.42185   
     axis 180 30 90   XYZ
    dof rx ry rz
    limits (-90.0 60.0)
           (-90.0 90.0)
           (-90.0 90.0)
  end
  begin
     id 26 
     name rradius
     direction -1 -4.48954e-011 -2.56271e-027   
     length 3.51317   
     axis 180 30 90   XYZ
    dof rx
    limits (-10.0 170.0)
  end
  begin
     id 27 
     name rwrist
     direction -1 -4.48943e-011 2.56952e-028   
     length 1.75658   
     axis -5.12785e-016 -90 -90   XYZ
    dof ry
    limits (-180.0 0.0)
  end
  begin
     id 28
     name rhand
     direction -1 -4.4912e-011 5.13905e-028   
     length 0.663187   
     axis -3.27915e-016 -90 -90   XYZ
    dof rx rz
    limits (-90.0 90.0)
           (-45.0 45.0)
  end
  begin
     id 29
     name rfingers
     direction -1 -4.48914e-011 1.02781e-027   
     length 0.534679   
     axis -6.5583e-016 -90 -90   XYZ
    dof rx
    limits (0.0 90.0)
  end
  begin
     id 30
     name rthumb
     direction -0.707107 -6.35033e-011 0.707107   
     length 0.767695   
     axis -90 -45 -2.85299e-015   XYZ
    dof rx rz
    limits (-45.0 45.0)
           (-45.0 45.0)
  end
:hierarchy
  begin
    root lhipjoint rhipjoint lowerback
    lhipjoint lfemur
    lfemur ltibia
    ltibia lfoot
    lfoot ltoes
    rhipjoint rfemur
    rfemur rtibia
    rtibia rfoot
    rfoot rtoes
    lowerback upperback
    upperback thorax
    thorax lowerneck lclavicle rclavicle
    lowerneck upperneck
    upperneck head
    lclavicle lhumerus
    lhumerus lradius
    lradius lwrist
    lwrist lhand lthumb
    lhand lfingers
    rclavicle rhumerus
    rhumerus rradius
    rradius rwrist
    rwrist rhand rthumb
    rhand rfingers
  end

#!OML:ASF F:\VICON\USERDATA\INSTALL\Justin_a\Justin_a.ASF
:FULLY-SPECIFIED
:DEGREES
1
root -12.8812 17.8321 -13.9754 4.15452 43.5058 -2.99425
lowerback -2.98476 -0.0631118 -0.911185
upperback -0.928392 -0.0679686 3.34231
thorax 0.725899 -0.0237613 3.9494
lowerneck -16.4699 -2.28058 -4.18255
upperneck 23.5053 -2.20331 1.09033
head 10.3006 -1.21092 0.797051
rclavicle 3.47376e-014 -9.54166e-015
rhumerus -29.7197 -7.13267 -82.0946
rradius 25.3001
rwrist 6.81956
rhand -24.7895 14.5465
rfingers 7.12502
rthumb 1.71486 -15.4264
lclavicle 3.47376e-014 -9.54166e-015
lhumerus -33.8257 12.4826 85.1132
lradius 28.719
lwrist -0.454716
lhand -18.0526 25.4844
lfingers 7.12502
lthumb 8.21961 55.3045
rfemur -17.9085 4.27362 26.1898
rtibia 35.5739
rfoot -24.0768 -11.7645
rtoes 0.741643
lfemur -14.6693 -2.57704 -20.4124
ltibia 27.0783
lfoot -17.654 8.9716
ltoes 0.114806
2
root -12.8829 17.8326 -13.9754 4.24239 43.5487 -2.86953
lowerback -2.9808 -0.0581336 -0.990725
upperback -0.934639 -0.058955 3.30018
thorax 0.716606 -0.0193117 3.95103
lowerneck -16.4172 -2.26006 -4.13454
upperneck 23.4243 -2.18259 1.05945
head 10.2595 -1.20067 0.781271
rclavicle -1.26626e-013 1.27222e-014
rhumerus -29.7595 -7.16185 -82.0869
rradius 25.3206
rwrist 6.79608
rhand -24.8396 14.6119
rfingers 7.12502
rthumb 1.66645 -15.3613
lclavicle -1.26626e-013 1.27222e-014
lhumerus -33.8048 12.5662 85.0279
lradius 28.6058
lwrist -0.532969
lhand -18.0173 25.1345
lfingers 7.12502
lthumb 8.25365 54.9533
rfemur -17.9283 4.35658 26.0969
rtibia 35.6087
rfoot -24.1012 -11.8559
rtoes 1.06194
lfemur -14.659 -2.54707 -20.5052
ltibia 27.0265
lfoot -17.6385 8.85837
ltoes 0.436702
3
root -12.8855 17.8324 -13.9759 4.24508 43.5741 -2.86688
lowerback -2.96958 -0.0682038 -0.984559
upperback -0.917631 -0.0729855 3.29814
thorax 0.728848 -0.0267455 3.94492
lowerneck -16.4772 -2.24051 -4.06385
upperneck 23.383 -2.13522 0.915303
head 10.2522 -1.18975 0.724275
rclavicle 1.64246e-014 1.98785e-014
rhumerus -29.6962 -7.25029 -82.0836
rradius 25.2442
rwrist 6.77417
rhand -24.788 14.7019
rfingers 7.12502
rthumb 1.71629 -15.271
lclavicle 1.64246e-014 1.98785e-014
lhumerus -33.752 12.4582 85.1015
lradius 28.6625
lwrist -0.473127
lhand -18.0011 25.6072
lfingers 7.12502
lthumb 8.26925 55.4253
rfemur -17.939 4.38471 26.0946
rtibia 35.6313
rfoot -24.1913 -11.7871
rtoes 1.30785
lfemur -14.6661 -2.54008 -20.4998
ltibia 27.0119
lfoot -17.5879 8.84081
ltoes 0.241518
4
root -12.8856 17.8328 -13.9772 4.29845 43.5452 -2.8045
lowerback -2.96533 -0.059681 -1.01884
upperback -0.922731 -0.0605141 3.28254
thorax 0.720294 -0.0204267 3.94858
lowerneck -16.4359 -2.24995 -4.0486
upperneck 23.2564 -2.12022 0.778581
head 10.1968 -1.19763 0.675635
rclavicle -9.79014e-015 0
rhumerus -29.7368 -7.19183 -82.1074
rradius 25.2988
rwrist 6.70706
rhand -24.6414 14.424
rfingers 7.12502
rthumb 1.85794 -15.5476
lclavicle -9.79014e-015 0
lhumerus -33.7624 12.1989 85.2149
lradius 28.7915
lwrist -0.305093
lhand -18.0494 26.0837
lfingers 7.12502
lthumb 8.22266 55.9037
rfemur -17.9688 4.40117 26.0377
rtibia 35.6481
rfoot -24.2207 -11.7416
rtoes 1.28442
lfemur -14.6704 -2.61997 -20.5541
ltibia 26.9991
lfoot -17.5575 8.93735
ltoes 0.29682
5
root -12.885 17.8328 -13.9772 4.25801 43.5268 -2.8855
lowerback -3.00091 -0.0683865 -0.976917
upperback -0.915255 -0.0737061 3.33458
thorax 0.748913 -0.0272071 3.9785
lowerneck -16.4249 -2.25634 -4.11656
upperneck 23.1741 -2.09618 0.71857
head 10.165 -1.19961 0.669098
rclavicle -6.95746e-015 -3.97569e-015
rhumerus -29.7326 -6.9818 -82.1193
rradius 25.3346
rwrist 6.51932
rhand -24.877 14.2703
rfingers 7.12502
rthumb 1.63035 -15.7033
lclavicle -6.95746e-015 -3.97569e-015
lhumerus -33.758 12.345 85.2345
lradius 28.7938
lwrist -0.351834
lhand -18.074 26.1464
lfingers 7.12502
lthumb 8.19887 55.9673
rfemur -17.9782 4.34907 26.0982
rtibia 35.6401
rfoot -24.1969 -11.7149
rtoes 1.41347
lfemur -14.6959 -2.54492 -20.4926
ltibia 27.0245
lfoot -17.6632 8.87552
ltoes 0.430459
6
root -12.887 17.8338 -13.9767 4.2755 43.5536 -2.87516
lowerback -3.02986 -0.078208 -0.989911
upperback -0.890629 -0.0873539 3.34322
thorax 0.79149 -0.0348953 3.99445
lowerneck -16.5074 -2.24261 -4.10965
upperneck 23.172 -2.06643 0.683509
head 10.1787 -1.18952 0.658854
rclavicle 5.06901e-015 -3.18055e-015
rhumerus -29.7223 -6.89411 -82.1341
rradius 25.3947
rwrist 6.37942
rhand -24.9483 14.287
rfingers 7.12502
rthumb 1.56154 -15.687
lclavicle 5.06901e-015 -3.18055e-015
lhumerus -33.7083 12.4071 85.2663
lradius 28.8278
lwrist -0.337962
lhand -18.2841 26.3592
lfingers 7.12502
lthumb 7.99616 56.188
rfemur -17.9992 4.31939 26.0969
rtibia 35.648
rfoot -24.1776 -11.7161
rtoes 1.27073
lfemur -14.7225 -2.5411 -20.4918
ltibia 27.0344
lfoot -17.7117 8.77732
ltoes 1.19031
7
root -12.8875 17.8332 -13.978 4.17742 43.5434 -2.99151
lowerback -3.01217 -0.0494999 -0.875495
upperback -0.886199 -0.0521728 3.33615
thorax 0.783363 -0.0170766 3.92348
lowerneck -16.5008 -2.24925 -4.02237
upperneck 23.1641 -2.09584 0.665171
head 10.1738 -1.19748 0.633849
rclavicle -1.73937e-015 -7.95139e-016
rhumerus -29.7325 -7.04774 -82.14
rradius 25.3045
rwrist 6.48631
rhand -24.9635 14.6194
rfingers 7.12502
rthumb 1.54683 -15.3547
lclavicle -1.73937e-015 -7.95139e-016
lhumerus -33.7126 12.2025 85.3105
lradius 28.89
lwrist -0.129433
lhand -18.3889 26.5213
lfingers 7.12502
lthumb 7.895 56.3539
rfemur -17.9736 4.32261 26.1887
rtibia 35.6248
rfoot -24.1087 -11.7352
rtoes 0.810779
lfemur -14.7307 -2.59568 -20.4006
ltibia 27.0861
lfoot -17.7048 8.84097
ltoes 1.29225
8
root -12.8892 17.832 -13.9778 4.21037 43.5375 -2.86625
lowerback -2.95552 -0.0629984 -0.958576
upperback -0.884902 -0.0675798 3.29625
thorax 0.754155 -0.0247928 3.92843
lowerneck -16.5017 -2.24737 -4.03561
upperneck 23.1997 -2.09585 0.69147
head 10.1872 -1.19564 0.645348
rclavicle 4.72611e-014 1.19271e-014
rhumerus -29.7619 -7.05071 -82.1696
rradius 25.2191
rwrist 6.62883
rhand -25.1362 14.74
rfingers 7.12502
rthumb 1.38007 -15.2353
lclavicle 4.72611e-014 1.19271e-014
lhumerus -33.7293 12.1434 85.2876
lradius 28.9041
lwrist -0.0653406
lhand -18.3775 26.5175
lfingers 7.12502
lthumb 7.90604 56.3497
rfemur -17.9201 4.27806 26.0983
rtibia 35.6161
rfoot -24.1523 -11.6613
rtoes 0.938468
lfemur -14.6831 -2.56267 -20.5069
ltibia 27.1149
lfoot -17.6837 8.9311
ltoes 0.452388
9
root -12.8915 17.8309 -13.9768 4.01762 43.5707 -3.12398
lowerback -2.91958 -0.0519927 -0.772035
upperback -0.910617 -0.0567894 3.35148
thorax 0.706721 -0.017993 3.88032
lowerneck -16.4196 -2.25141 -4.06675
upperneck 23.1856 -2.09527 0.688748
head 10.167 -1.19827 0.650436
rclavicle -1.80149e-014 7.15625e-015
rhumerus -29.8284 -6.8715 -82.1956
rradius 25.1971
rwrist 6.44464
rhand -25.1878 14.513
rfingers 7.12502
rthumb 1.33022 -15.4626
lclavicle -1.80149e-014 7.15625e-015
lhumerus -33.8013 11.9991 85.3467
lradius 28.9332
lwrist 0.0272591
lhand -18.4827 26.259
lfingers 7.12502
lthumb 7.80443 56.0949
rfemur -17.9047 4.28659 26.3197
rtibia 35.6133
rfoot -24.1355 -11.7225
rtoes 1.03886
lfemur -14.6749 -2.58347 -20.2747
ltibia 27.1265
lfoot -17.7497 8.84939
ltoes 0.831445
